<?xml version="1.0" encoding="UTF-8" standalone="no"?>
<!-- Created with Inkscape (http://www.inkscape.org/) -->

<svg
   xmlns:dc="http://purl.org/dc/elements/1.1/"
   xmlns:cc="http://creativecommons.org/ns#"
   xmlns:rdf="http://www.w3.org/1999/02/22-rdf-syntax-ns#"
   xmlns:svg="http://www.w3.org/2000/svg"
   xmlns="http://www.w3.org/2000/svg"
   xmlns:sodipodi="http://sodipodi.sourceforge.net/DTD/sodipodi-0.dtd"
   xmlns:inkscape="http://www.inkscape.org/namespaces/inkscape"
   width="200"
   height="199.99553"
   viewBox="0 0 199.99999 199.99554"
   id="svg2"
   version="1.1"
   inkscape:version="0.91 r13725"
   sodipodi:docname="qd.svg">
  <defs
     id="defs4" />
  <sodipodi:namedview
     id="base"
     pagecolor="#ffffff"
     bordercolor="#666666"
     borderopacity="1.0"
     inkscape:pageopacity="0.0"
     inkscape:pageshadow="2"
     inkscape:zoom="1.979899"
     inkscape:cx="64.558593"
     inkscape:cy="90.808389"
     inkscape:document-units="px"
     inkscape:current-layer="layer1"
     showgrid="false"
     inkscape:window-width="1440"
     inkscape:window-height="851"
     inkscape:window-x="-2"
     inkscape:window-y="0"
     inkscape:window-maximized="0"
     fit-margin-top="8.2803"
     fit-margin-left="2.85154"
     fit-margin-right="2.85159"
     fit-margin-bottom="8.2803"
     units="px" />
  <metadata
     id="metadata7">
    <rdf:RDF>
      <cc:Work
         rdf:about="">
        <dc:format>image/svg+xml</dc:format>
        <dc:type
           rdf:resource="http://purl.org/dc/dcmitype/StillImage" />
        <dc:title></dc:title>
      </cc:Work>
    </rdf:RDF>
  </metadata>
  <g
     inkscape:label="Layer 1"
     inkscape:groupmode="layer"
     id="layer1"
     transform="translate(4.2178079,27.993145)">
    <text
       xml:space="preserve"
       style="font-style:normal;font-weight:normal;font-size:51.48038864px;line-height:125%;font-family:Sans;letter-spacing:0px;word-spacing:0px;fill:#dbe3e3;fill-opacity:1;stroke:none;stroke-width:1px;stroke-linecap:butt;stroke-linejoin:miter;stroke-opacity:1"
       x="110.18185"
       y="18.495256"
       id="text4325"
       sodipodi:linespacing="125%"><tspan
         sodipodi:role="line"
         id="tspan4327"
         x="110.18185"
         y="18.495256">&amp;</tspan></text>
    <text
       xml:space="preserve"
       style="font-style:normal;font-weight:normal;font-size:40px;line-height:125%;font-family:Sans;letter-spacing:0px;word-spacing:0px;fill:#000000;fill-opacity:1;stroke:none;stroke-width:1px;stroke-linecap:butt;stroke-linejoin:miter;stroke-opacity:1"
       x="319.20819"
       y="638.19965"
       id="text4177"
       sodipodi:linespacing="125%"><tspan
         sodipodi:role="line"
         id="tspan4179"
         x="319.20819"
         y="638.19965" /></text>
    <path
       sodipodi:nodetypes="scscscscsccscscsccccccc"
       style="font-style:normal;font-weight:normal;font-size:medium;line-height:125%;font-family:Sans;letter-spacing:0px;word-spacing:0px;fill:#00aad4;fill-opacity:1;stroke:none;stroke-width:1px;stroke-linecap:butt;stroke-linejoin:miter;stroke-opacity:1"
       id="path4208"
       d="m 30.649514,72.834309 c 0,9.798715 2.003188,17.497702 6.009558,23.096969 4.054641,5.551002 9.605638,8.326492 16.652991,8.326492 7.047349,0 12.598347,-2.77549 16.652987,-8.326492 4.054641,-5.599267 6.081961,-13.298254 6.081961,-23.096969 0,-9.798714 -2.02732,-17.473573 -6.081961,-23.024569 -4.05464,-5.599267 -9.605638,-8.398899 -16.652987,-8.398899 -7.047353,0 -12.59835,2.799632 -16.652991,8.398899 -4.00637,5.550996 -6.009558,13.225855 -6.009558,23.024569 z m 45.397497,28.310081 c -2.799631,4.82695 -6.347441,8.42303 -10.643433,10.78824 -4.247718,2.31694 -9.364291,3.4754 -15.349712,3.4754 -9.798714,0 -17.787319,-3.90983 -23.96582,-11.72949 -6.130231,-7.819662 -9.195347,-18.101075 -9.195347,-30.844231 0,-12.743157 3.065116,-23.024569 9.195347,-30.844233 6.178501,-7.819666 14.167106,-11.729495 23.96582,-11.729495 5.985421,0 11.101994,1.182602 15.349712,3.547809 4.295992,2.316938 7.843802,5.888884 10.643433,10.715837 l 0,-12.308733 13.322392,0 0,118.637466 -13.322392,0 z"
       inkscape:connector-curvature="0" />
    <g
       style="font-style:normal;font-weight:normal;font-size:40px;line-height:125%;font-family:Sans;letter-spacing:0px;word-spacing:0px;fill:#666666;fill-opacity:1;stroke:none;stroke-width:1px;stroke-linecap:butt;stroke-linejoin:miter;stroke-opacity:1"
       id="text4317"
       transform="translate(-26.428571,4.2857143)">
      <path
         d="m 38.577913,-12.511166 q -4.296875,0 -6.835937,3.2031254 -2.519531,3.203125 -2.519531,8.73046873 0,5.50781247 2.519531,8.71093747 2.539062,3.2031254 6.835937,3.2031254 4.296875,0 6.796875,-3.2031254 2.519532,-3.203125 2.519532,-8.71093747 0,-5.52734373 -2.519532,-8.73046873 -2.5,-3.2031254 -6.796875,-3.2031254 z m 5.527344,25.957032 5.195313,5.683593 -4.765625,0 -4.316407,-4.667968 q -0.644531,0.03906 -0.996093,0.05859 -0.332032,0.01953 -0.644532,0.01953 -6.152343,0 -9.84375,-4.101563 -3.671875,-4.1210936 -3.671875,-11.01562487 0,-6.91406253 3.671875,-11.01562513 3.691407,-4.121094 9.84375,-4.121094 6.132813,0 9.804688,4.121094 3.671875,4.1015626 3.671875,11.01562513 0,5.07812497 -2.050781,8.69140627 -2.03125,3.6132816 -5.898438,5.3320316 z"
         id="path4330"
         inkscape:connector-curvature="0"
         style="fill:#666666" />
      <path
         d="m 57.699007,5.3403969 0,-13.2421875 3.59375,0 0,13.1054687 q 0,3.1054688 1.210938,4.6679688 1.210937,1.5429691 3.632812,1.5429691 2.910156,0 4.589844,-1.8554691 1.699219,-1.8554688 1.699219,-5.0585938 l 0,-12.4023437 3.59375,0 0,21.8749996 -3.59375,0 0,-3.359375 q -1.308594,1.992188 -3.046875,2.96875 -1.71875,0.957032 -4.003907,0.957032 -3.769531,0 -5.722656,-2.34375 -1.953125,-2.3437504 -1.953125,-6.8554691 z"
         id="path4332"
         inkscape:connector-curvature="0"
         style="fill:#666666" />
      <path
         d="m 83.460726,-7.9017906 3.59375,0 0,21.8749996 -3.59375,0 0,-21.8749996 z m 0,-8.5156254 3.59375,0 0,4.550782 -3.59375,0 0,-4.550782 z"
         id="path4334"
         inkscape:connector-curvature="0"
         style="fill:#666666" />
      <path
         d="m 110.29666,-7.0619469 0,3.359375 q -1.52343,-0.8398437 -3.0664,-1.25 -1.52344,-0.4296875 -3.08594,-0.4296875 -3.49609,0 -5.429688,2.2265625 -1.933594,2.20703128 -1.933594,6.2109375 0,4.0039063 1.933594,6.2304688 1.933598,2.2070316 5.429688,2.2070316 1.5625,0 3.08594,-0.410157 1.54297,-0.429687 3.0664,-1.2695309 l 0,3.3203129 q -1.5039,0.703125 -3.125,1.054687 -1.60156,0.351563 -3.41797,0.351563 -4.941402,0 -7.851558,-3.105469 -2.910156,-3.1054689 -2.910156,-8.3789064 0,-5.3515625 2.929687,-8.4179687 2.949219,-3.0664063 8.066407,-3.0664063 1.66016,0 3.24219,0.3515625 1.58203,0.3320313 3.0664,1.015625 z"
         id="path4336"
         inkscape:connector-curvature="0"
         style="fill:#666666" />
      <path
         d="m 116.37088,-16.417416 3.61328,0 0,17.9492191 10.72266,-9.4335937 4.58984,0 -11.60156,10.234375 12.08984,11.6406246 -4.6875,0 -11.11328,-10.6835934 0,10.6835934 -3.61328,0 0,-30.390625 z"
         id="path4338"
         inkscape:connector-curvature="0"
         style="fill:#666666" />
    </g>
    <path
       sodipodi:nodetypes="cccccccscscsccscscscscs"
       style="font-style:normal;font-weight:normal;font-size:medium;line-height:125%;font-family:Sans;letter-spacing:0px;word-spacing:0px;fill:#37c871;fill-opacity:1;stroke:none;stroke-width:1px;stroke-linecap:butt;stroke-linejoin:miter;stroke-opacity:1"
       id="path4205"
       d="m 156.11357,46.621554 0,-51.9136508 13.5328,0 0,121.7840268 -13.5328,0 0,-12.35602 c -2.84384,4.90318 -6.44771,8.55605 -10.81154,10.95861 -4.31479,2.35353 -9.51217,3.53029 -15.59212,3.53029 -9.95346,0 -18.06823,-3.97157 -24.3443,-11.91473 -6.227049,-7.94316 -9.340572,-18.386944 -9.340572,-31.33135 0,-12.944406 3.113523,-23.388186 9.340572,-31.331345 6.27607,-7.943158 14.39084,-11.914739 24.3443,-11.914739 6.07995,0 11.27733,1.201279 15.59212,3.60384 4.36383,2.353528 7.9677,5.981886 10.81154,10.885068 z M 109.99912,75.37873 c 0,9.953464 2.03482,17.774043 6.10445,23.461743 4.11868,5.638647 9.75734,8.457987 16.91599,8.457987 7.15865,0 12.79732,-2.81934 16.91599,-8.457987 4.11868,-5.6877 6.17802,-13.508279 6.17802,-23.461743 0,-9.953463 -2.05934,-17.749527 -6.17802,-23.388186 -4.11867,-5.687695 -9.75734,-8.53154 -16.91599,-8.53154 -7.15865,0 -12.79731,2.843845 -16.91599,8.53154 -4.06963,5.638659 -6.10445,13.434723 -6.10445,23.388186 z"
       inkscape:connector-curvature="0" />
    <text
       xml:space="preserve"
       style="font-style:normal;font-weight:normal;font-size:40px;line-height:125%;font-family:Sans;letter-spacing:0px;word-spacing:0px;fill:#000000;fill-opacity:1;stroke:none;stroke-width:1px;stroke-linecap:butt;stroke-linejoin:miter;stroke-opacity:1"
       x="171.42857"
       y="315.21936"
       id="text4236"
       sodipodi:linespacing="125%"><tspan
         sodipodi:role="line"
         id="tspan4238"
         x="171.42857"
         y="315.21936" /></text>
    <g
       style="font-style:normal;font-weight:normal;font-size:40px;line-height:125%;font-family:Sans;letter-spacing:0px;word-spacing:0px;fill:#666666;fill-opacity:1;stroke:none;stroke-width:1px;stroke-linecap:butt;stroke-linejoin:miter;stroke-opacity:1"
       id="text4321"
       transform="translate(-3.5714286,12.142857)">
      <path
         d="m 107.83015,117.34096 0,22.67578 4.76562,0 q 6.03516,0 8.82813,-2.73438 2.8125,-2.73437 2.8125,-8.63281 0,-5.85937 -2.8125,-8.57422 -2.79297,-2.73437 -8.82813,-2.73437 l -4.76562,0 z m -3.94532,-3.24219 8.10547,0 q 8.47657,0 12.44141,3.53516 3.96484,3.51562 3.96484,11.01562 0,7.53906 -3.98437,11.07422 -3.98438,3.53516 -12.42188,3.53516 l -8.10547,0 0,-29.16016 z"
         id="path4341"
         inkscape:connector-curvature="0"
         style="fill:#666666" />
      <path
         d="m 134.50983,121.38393 3.59375,0 0,21.875 -3.59375,0 0,-21.875 z m 0,-8.51563 3.59375,0 0,4.55078 -3.59375,0 0,-4.55078 z"
         id="path4343"
         inkscape:connector-curvature="0"
         style="fill:#666666" />
      <path
         d="m 158.27937,124.7433 q -0.60547,-0.35156 -1.32813,-0.50781 -0.70312,-0.17578 -1.5625,-0.17578 -3.04687,0 -4.6875,1.99219 -1.62109,1.97265 -1.62109,5.68359 l 0,11.52344 -3.61328,0 0,-21.875 3.61328,0 0,3.39843 q 1.13281,-1.99218 2.94922,-2.94921 1.8164,-0.97657 4.41406,-0.97657 0.37109,0 0.82031,0.0586 0.44922,0.0391 0.99609,0.13672 l 0.0195,3.6914 z"
         id="path4345"
         inkscape:connector-curvature="0"
         style="fill:#666666" />
      <path
         d="m 165.64265,115.17299 0,6.21094 7.40234,0 0,2.79297 -7.40234,0 0,11.875 q 0,2.67578 0.72265,3.4375 0.74219,0.76171 2.98828,0.76171 l 3.69141,0 0,3.00782 -3.69141,0 q -4.16015,0 -5.74218,-1.54297 -1.58203,-1.5625 -1.58203,-5.66406 l 0,-11.875 -2.63672,0 0,-2.79297 2.63672,0 0,-6.21094 3.61328,0 z"
         id="path4347"
         inkscape:connector-curvature="0"
         style="fill:#666666" />
      <path
         d="m 186.89265,145.29018 q -1.52344,3.90625 -2.96875,5.09765 -1.44532,1.19141 -3.86719,1.19141 l -2.87109,0 0,-3.00781 2.10937,0 q 1.48438,0 2.30469,-0.70313 0.82031,-0.70312 1.8164,-3.32031 l 0.64454,-1.64063 -8.84766,-21.52343 3.80859,0 6.83594,17.10937 6.83594,-17.10937 3.80859,0 -9.60937,23.90625 z"
         id="path4349"
         inkscape:connector-curvature="0"
         style="fill:#666666" />
    </g>
  </g>
</svg>
